<?xml version="1.0" encoding="utf-8"?>
<!-- Generator: Adobe Illustrator 16.0.0, SVG Export Plug-In . SVG Version: 6.00 Build 0)  -->
<!DOCTYPE svg PUBLIC "-//W3C//DTD SVG 1.1//EN" "http://www.w3.org/Graphics/SVG/1.1/DTD/svg11.dtd">
<svg version="1.1" id="Vrstva_1" xmlns="http://www.w3.org/2000/svg" xmlns:xlink="http://www.w3.org/1999/xlink" x="0px" y="0px"
	 width="226.77px" height="226.77px" viewBox="0 0 226.77 226.77" enable-background="new 0 0 226.77 226.77" xml:space="preserve">
<g>
	<path fill="#D12026" d="M124.654,217.773h65.162c8.398,0,15.266-6.846,15.266-15.201v-51.768h-80.428V217.773L124.654,217.773z
		 M23.33,202.572c0,8.355,6.867,15.201,15.265,15.201h69.393v-66.969H23.33V202.572L23.33,202.572z M189.795,65.829h-34.016
		c3.997-2.232,7.738-4.826,10.843-7.717c14.181-13.16,16.731-32.103,5.719-42.329c-4.613-4.273-10.885-6.356-17.646-6.356
		c-9.396,0-19.751,3.997-28,11.65c-4.783,4.443-8.865,10.162-11.799,16.179c-2.934-6.017-7.016-11.735-11.799-16.179
		c-8.249-7.654-18.603-11.65-27.978-11.65c-6.782,0-13.033,2.083-17.646,6.356c-11.034,10.226-8.461,29.169,5.698,42.329
		c3.125,2.891,6.846,5.485,10.843,7.717h-35.44c-8.398,0-15.265,6.846-15.265,15.201v53.193h84.657v-61.74
		c2.785-0.766,4.571-1.956,6.548-3.784c0.148-0.128,0.234-0.298,0.383-0.425c0.127,0.127,0.234,0.297,0.383,0.425
		c1.977,1.828,6.569,3.04,9.375,3.784v61.718h80.428V81.029C205.061,72.653,198.193,65.829,189.795,65.829L189.795,65.829z
		 M103.969,57.282c0,0-1.021,0.638-3.891,0.638c-8.143,0-19.432-4.805-26.298-11.141c-5.613-5.208-7.611-10.97-7.611-14.626
		c0-3.253,1.424-4.592,1.892-5.018c2.063-1.914,5.294-2.19,7.037-2.19c5.825,0,12.331,2.807,17.37,7.484
		C102.034,41.273,105.308,54.646,103.969,57.282L103.969,57.282z M126.079,57.495C126.059,57.495,126.059,57.495,126.079,57.495
		c-1.53-3.04,1.765-16.285,11.247-25.087c5.06-4.677,11.544-7.483,17.369-7.483c1.743,0,4.975,0.276,7.037,2.189
		c0.468,0.425,1.893,1.765,1.893,5.018c0,3.657-1.999,9.418-7.59,14.627c-6.846,6.357-18.156,11.14-26.299,11.14
		C127.376,57.92,126.249,57.495,126.079,57.495L126.079,57.495z"/>
</g>
</svg>
