<?xml version="1.0" encoding="utf-8"?>
<!-- Svg Vector Icons : http://www.onlinewebfonts.com/icon -->
<!DOCTYPE svg PUBLIC "-//W3C//DTD SVG 1.1//EN" "http://www.w3.org/Graphics/SVG/1.1/DTD/svg11.dtd">
<svg version="1.1" xmlns="http://www.w3.org/2000/svg" xmlns:xlink="http://www.w3.org/1999/xlink" x="0px" y="0px" viewBox="0 0 1000 1000" enable-background="new 0 0 1000 1000" xml:space="preserve">
<metadata> Svg Vector Icons : http://www.onlinewebfonts.com/icon </metadata>
<g><path d="M499.1,10C229.5,10,10,229.5,10,499.1C10,770.5,229.5,990,499.1,990C770.5,990,990,770.5,990,499.1C990,229.5,770.5,10,499.1,10z M608,416.2l-5.2,72.6h-74.3v254.1h-95.1V490.5h-50.1v-72.6h50.1v-50.1c0-22.5,0-55.3,15.6-76c17.3-22.5,39.8-36.3,79.5-36.3c64,0,91.6,8.6,91.6,8.6l-13.8,74.3c0,0-20.7-6.9-41.5-6.9c-19,0-38,6.9-38,25.9v57H608V416.2z"/></g>
</svg>