<?xml version="1.0" encoding="utf-8"?>
<!-- Generator: Adobe Illustrator 19.2.1, SVG Export Plug-In . SVG Version: 6.00 Build 0)  -->
<svg version="1.1" id="Layer_1" xmlns="http://www.w3.org/2000/svg" xmlns:xlink="http://www.w3.org/1999/xlink" x="0px" y="0px"
	 viewBox="0 0 1000 1000" style="enable-background:new 0 0 1000 1000;" xml:space="preserve">
<style type="text/css">
	.st0{fill:#AA4E4B;}
</style>
<g>
	<path class="st0" d="M925.2,113.7H74.8c-35.7,0-64.8,29.1-64.8,64.8v643c0,35.7,29.1,64.8,64.8,64.8h850.3
		c35.7,0,64.8-29.1,64.8-64.8v-643C990,142.8,961,113.7,925.2,113.7z M943.3,178.5v288H464.4c31.3-10.3,68.5-25.3,86.5-43.2
		c23.1-23.1,35.9-53.9,35.9-86.6s-12.8-63.5-35.9-86.6c-47.8-47.8-125.5-47.8-173.3,0c-5.8,5.8-21.4,21.4-42.1,83.4V160.3h589.8
		C935.2,160.3,943.3,168.6,943.3,178.5z M268.6,530.4c-2.6,11.5-5.9,24.8-9.6,38.6c-18.4,67.8-31.7,84.9-35.3,88.5
		c-22.6,22.6-59.4,22.6-82.2,0c-11-11-17-25.6-17-41.1s6.1-30.1,17-41.1c3.7-3.7,20.7-16.8,88.3-35.2
		C243.5,536.3,257,533.1,268.6,530.4z M352.5,448.3c14.8-65.9,38.4-145.7,58-165.3c29.6-29.6,77.7-29.6,107.3,0
		c14.3,14.3,22.2,33.4,22.2,53.7s-7.9,39.4-22.2,53.7c-6,6-28.6,22.2-109.9,44.2C387.7,440,368.1,444.7,352.5,448.3z M74.8,160.3
		h214v295.2c-3-0.8-6.2-1.5-9.3-2.2c-54.2-15.4-86.1-38.3-95.2-68.1c-14.5-48.1,32.6-104.1,33.4-105.1c8.4-9.7,7.3-24.4-2.4-32.9
		c-9.7-8.4-24.4-7.4-32.9,2.4c-2.6,3-64.6,75.9-42.8,148.8c8.1,27.1,26.2,49.8,54,68H56.7v-288C56.7,168.6,64.8,160.3,74.8,160.3z
		 M56.7,821.5V513.2h103.8c-37.1,14.2-47.8,24.9-52,29.1c-19.8,19.8-30.6,46.1-30.6,74.1s10.9,54.3,30.6,74.1
		c20.4,20.4,47.3,30.6,74.1,30.6s53.7-10.2,74.1-30.6c4.6-4.6,16.4-16.4,32.2-60.3v209.5H74.8C64.8,839.7,56.7,831.5,56.7,821.5z
		 M925.2,839.7H335.4V523.1c9.4,2.7,19.3,5.3,29.4,7.7c54.2,15.4,86.1,38.3,95.2,68.1C474.5,647,427.5,703,426.7,704
		c-8.4,9.7-7.3,24.4,2.4,32.9c9.7,8.4,24.4,7.4,32.9-2.4c2.6-3,64.6-75.9,42.8-148.8c-8.8-29.3-29.2-53.5-61.1-72.4h499.6v308.3
		C943.3,831.5,935.2,839.7,925.2,839.7z"/>
</g>
</svg>
