<?xml version="1.0" encoding="utf-8"?>
<!-- Generator: Adobe Illustrator 19.2.1, SVG Export Plug-In . SVG Version: 6.00 Build 0)  -->
<svg version="1.1" id="Layer_1" xmlns="http://www.w3.org/2000/svg" xmlns:xlink="http://www.w3.org/1999/xlink" x="0px" y="0px"
	 viewBox="0 0 1000 1000" style="enable-background:new 0 0 1000 1000;" xml:space="preserve">
<style type="text/css">
	.st0{fill:#5A8E56;}
</style>
<g>
	<g>
		<g>
			<path class="st0" d="M500,10C229.8,10,10,229.8,10,500s219.8,490,490,490s490-219.8,490-490S770.2,10,500,10z M500,900.9
				C278.9,900.9,99.1,721,99.1,500S278.9,99.1,500,99.1c221,0,400.9,179.8,400.9,400.9C900.9,721,721,900.9,500,900.9z"/>
			<polygon class="st0" points="544.6,321.8 455.5,321.8 455.5,500 455.5,589.1 455.5,589.1 544.6,589.1 544.6,589.1 678.1,589.1 
				678.1,500 544.6,500 			"/>
		</g>
	</g>
</g>
</svg>
