<?xml version="1.0" encoding="utf-8"?>
<!-- Generator: Adobe Illustrator 16.0.0, SVG Export Plug-In . SVG Version: 6.00 Build 0)  -->
<!DOCTYPE svg PUBLIC "-//W3C//DTD SVG 1.1//EN" "http://www.w3.org/Graphics/SVG/1.1/DTD/svg11.dtd">
<svg version="1.1" id="Vrstva_1" xmlns="http://www.w3.org/2000/svg" xmlns:xlink="http://www.w3.org/1999/xlink" x="0px" y="0px"
	 width="113.391px" height="113.391px" viewBox="0 0 113.391 113.391" enable-background="new 0 0 113.391 113.391"
	 xml:space="preserve">
<g>
	<path fill="#D22027" d="M56.682,103.033l29.801,4.199c3.84,0.535,7.44-2.254,8-6.207l3.449-24.465l-36.802-5.172L56.682,103.033
		L56.682,103.033z M11.338,89.342c-0.555,3.935,2.134,7.63,5.978,8.164l31.742,4.461l4.444-31.651l-38.723-5.438L11.338,89.342
		L11.338,89.342z M96.568,35.412l-15.547-2.184c1.969-0.802,3.852-1.789,5.461-2.945c7.371-5.313,9.793-14.104,5.43-19.648
		c-1.82-2.313-4.547-3.698-7.641-4.133c-4.293-0.608-9.301,0.617-13.594,3.703c-2.48,1.801-4.728,4.234-6.466,6.887
		c-0.94-3.03-2.434-5.991-4.323-8.405c-3.263-4.148-7.738-6.699-12.027-7.306c-3.098-0.434-6.103,0.146-8.492,1.875
		c-5.727,4.121-5.805,13.238-0.203,20.367c1.238,1.57,2.767,3.035,4.441,4.344l-16.211-2.28c-3.844-0.539-7.438,2.258-7.996,6.211
		l-3.535,25.141L54.6,62.475l4.102-29.177c1.32-0.19,2.223-0.629,3.246-1.37c0.074-0.048,0.125-0.117,0.207-0.181
		c0.043,0.066,0.086,0.164,0.145,0.234c0.785,0.983,2.806,1.852,4.031,2.387l-4.098,29.168l36.797,5.168l3.531-25.121
		C103.111,39.623,100.42,35.951,96.568,35.412L96.568,35.412z M57.885,25.857c0,0-0.512,0.238-1.827,0.051
		c-3.724-0.523-8.57-3.523-11.289-6.957c-2.215-2.824-2.759-5.68-2.517-7.402c0.224-1.539,0.961-2.082,1.207-2.245
		c1.07-0.777,2.566-0.699,3.363-0.582c2.66,0.366,5.453,2.112,7.441,4.647C58.061,18.166,58.666,24.697,57.885,25.857L57.885,25.857
		z M67.971,27.381L67.971,27.381c-0.488-1.539,1.905-7.586,6.823-11.137c2.629-1.887,5.793-2.789,8.449-2.418
		c0.781,0.109,2.242,0.453,3.066,1.484c0.18,0.233,0.758,0.953,0.535,2.496c-0.246,1.727-1.539,4.319-4.438,6.426
		c-3.555,2.559-9.047,4.102-12.777,3.565C68.553,27.666,68.057,27.389,67.971,27.381L67.971,27.381z"/>
</g>
<g>
	<path fill="none" stroke="#000000" stroke-width="3" stroke-miterlimit="10" d="M52.443,104.904l28.93,7.25
		c3.73,0.926,7.586-1.508,8.574-5.418l6.066-24.207l-35.73-8.953L52.443,104.904L52.443,104.904z M9.225,86.533
		c-0.978,3.898,1.27,7.871,4.996,8.805l30.823,7.715l7.836-31.323l-37.594-9.406L9.225,86.533L9.225,86.533z M99.162,41.072
		l-15.094-3.785c2.031-0.598,3.992-1.387,5.711-2.391c7.848-4.59,11.199-13.164,7.504-19.176c-1.555-2.513-4.09-4.185-7.09-4.935
		c-4.18-1.047-9.246-0.328-13.81,2.336c-2.645,1.547-5.12,3.771-7.133,6.258c-0.594-3.133-1.737-6.27-3.348-8.883
		c-2.758-4.496-6.896-7.52-11.059-8.559c-3.013-0.758-6.039-0.48-8.587,1.008c-6.09,3.555-7.168,12.707-2.418,20.434
		c1.043,1.703,2.392,3.328,3.91,4.813l-15.746-3.941c-3.727-0.934-7.573,1.513-8.559,5.422l-6.234,24.875l37.605,9.423l7.233-28.875
		c1.32-0.063,2.25-0.414,3.349-1.052c0.086-0.047,0.141-0.108,0.227-0.155c0.039,0.073,0.063,0.164,0.117,0.241
		c0.664,1.078,2.555,2.152,3.715,2.813l-7.229,28.871l35.727,8.938l6.23-24.858C105.154,45.963,102.904,41.998,99.162,41.072
		L99.162,41.072z M62.061,27.533c0,0-0.535,0.184-1.813-0.137c-3.608-0.898-8.063-4.41-10.371-8.138
		c-1.883-3.059-2.102-5.977-1.672-7.688c0.387-1.521,1.18-1.984,1.435-2.133C50.776,8.77,52.244,9,53.018,9.2
		c2.59,0.646,5.147,2.672,6.832,5.426C63.068,19.826,62.951,26.451,62.061,27.533L62.061,27.533z M71.838,30.088L71.838,30.088
		c-0.313-1.59,2.703-7.414,7.949-10.479c2.801-1.629,6.004-2.215,8.586-1.57c0.767,0.195,2.176,0.688,2.875,1.801
		c0.152,0.259,0.633,1.043,0.25,2.563c-0.43,1.711-1.992,4.18-5.078,5.996c-3.789,2.219-9.366,3.194-12.996,2.289
		C72.373,30.439,71.92,30.107,71.838,30.088L71.838,30.088z"/>
</g>
</svg>
